<?xml version="1.0" standalone="no"?>
<!DOCTYPE svg PUBLIC "-//W3C//DTD SVG 20010904//EN"
 "http://www.w3.org/TR/2001/REC-SVG-20010904/DTD/svg10.dtd">
<svg version="1.0" xmlns="http://www.w3.org/2000/svg"
 width="500.000000pt" height="500.000000pt" viewBox="0 0 500.000000 500.000000"
 preserveAspectRatio="xMidYMid meet">

<g transform="translate(0.000000,500.000000) scale(0.100000,-0.100000)"
fill="#000000" stroke="none">
<path d="M3559 4493 c-40 -21 -61 -40 -82 -75 l-29 -47 -49 -568 c-125 -1458
-149 -1744 -155 -1828 -4 -49 -10 -98 -14 -109 -6 -17 -96 112 -1217 1744 -96
140 -182 263 -191 274 -104 115 -369 48 -410 -105 -7 -24 -33 -282 -57 -574
-25 -291 -66 -768 -91 -1060 -25 -291 -63 -739 -84 -994 -30 -346 -37 -473
-30 -500 15 -55 45 -97 91 -128 37 -25 52 -28 120 -28 70 0 81 3 121 30 23 17
54 51 67 75 27 49 20 -21 121 1170 79 930 118 1382 122 1385 2 2 147 -207 323
-463 176 -256 365 -532 420 -612 56 -80 233 -338 395 -573 244 -356 300 -432
334 -452 122 -72 251 -24 320 117 l35 73 45 535 c25 294 66 776 91 1070 25
294 64 744 86 1000 22 255 37 478 33 495 -32 148 -179 216 -315 148z"/>
<path d="M815 3351 c-16 -10 -202 -192 -413 -403 -402 -404 -389 -388 -382
-468 1 -14 10 -38 20 -55 22 -36 760 -764 792 -782 66 -36 163 7 189 84 26 79
25 81 -334 440 l-331 333 331 332 c285 286 332 338 338 370 9 50 -9 101 -51
138 -28 24 -44 30 -82 30 -29 0 -59 -7 -77 -19z"/>
<path d="M4042 3350 c-53 -32 -78 -119 -51 -173 6 -12 158 -169 337 -349 l327
-328 -332 -327 c-292 -288 -333 -333 -339 -365 -10 -60 3 -103 41 -137 42 -37
72 -46 123 -36 32 6 87 56 425 393 214 213 395 399 403 414 17 32 18 76 3 115
-10 29 -677 705 -762 774 -41 33 -56 39 -95 39 -29 0 -59 -8 -80 -20z"/>
</g>
</svg>
